<svg width="263" height="41" viewBox="0 0 263 41" fill="none" xmlns="http://www.w3.org/2000/svg">
<path d="M2.55469 32.0703C0.851563 32.0703 0 31.7656 0 31.1562C0 30.9844 0.0546875 30.7344 0.164062 30.4062L9.35156 3.61719C9.57031 3.02344 10.3594 2.72656 11.7188 2.72656H13.875C15.2344 2.72656 16.0234 3.02344 16.2422 3.61719L25.4297 30.4062C25.5078 30.7188 25.5469 30.9688 25.5469 31.1562C25.5469 31.4688 25.375 31.7031 25.0312 31.8594C24.7031 32 24.1797 32.0703 23.4609 32.0703H21.6328C20.9766 32.0703 20.4453 32.0078 20.0391 31.8828C19.6484 31.7422 19.4062 31.5156 19.3125 31.2031L17.625 26.1172H7.80469L6.11719 31.2031C5.94531 31.7812 5.30469 32.0703 4.19531 32.0703H2.55469ZM15.8438 20.6094L13.4766 13.2031C13.3359 12.8281 13.2109 12.3984 13.1016 11.9141C13.0078 11.4297 12.9219 10.9688 12.8438 10.5312H12.6797L12.5859 11.0469C12.4297 11.9688 12.25 12.6875 12.0469 13.2031L9.58594 20.6094H15.8438ZM30.9844 40.6016C30.125 40.6016 29.4922 40.4844 29.0859 40.25C28.6797 40.0312 28.4766 39.6953 28.4766 39.2422V17.5391C28.4766 16.2891 28.4375 15.3125 28.3594 14.6094C28.2969 13.8906 28.2109 13.2031 28.1016 12.5469C28.0234 12.125 27.9844 11.8281 27.9844 11.6562C27.9844 11.3438 28.2734 11.0938 28.8516 10.9062C29.4297 10.7031 30.0859 10.5547 30.8203 10.4609C31.5703 10.3672 32.1719 10.3203 32.625 10.3203C33.125 10.3203 33.4688 10.5078 33.6562 10.8828C33.8594 11.2422 34.0391 11.7656 34.1953 12.4531L34.3125 12.9922C34.7969 12.0703 35.5312 11.3203 36.5156 10.7422C37.5156 10.1641 38.6406 9.875 39.8906 9.875C41.4062 9.875 42.75 10.3125 43.9219 11.1875C45.0938 12.0625 46.0078 13.3516 46.6641 15.0547C47.3359 16.7422 47.6719 18.7656 47.6719 21.125C47.6719 23.3906 47.3281 25.3672 46.6406 27.0547C45.9531 28.7422 44.9531 30.0469 43.6406 30.9688C42.3281 31.8906 40.75 32.3516 38.9062 32.3516C37.3281 32.3516 35.8984 31.9141 34.6172 31.0391V39.2422C34.6172 39.6953 34.4141 40.0312 34.0078 40.25C33.6172 40.4844 32.9922 40.6016 32.1328 40.6016H30.9844ZM37.5469 27.4531C40.125 27.4531 41.4141 25.3438 41.4141 21.125C41.4141 16.9844 40.2969 14.9141 38.0625 14.9141C36.75 14.9141 35.6016 15.7344 34.6172 17.375V26.6562C35.5859 27.1875 36.5625 27.4531 37.5469 27.4531ZM54.8906 40.6016C54.0312 40.6016 53.3984 40.4844 52.9922 40.25C52.5859 40.0312 52.3828 39.6953 52.3828 39.2422V17.5391C52.3828 16.2891 52.3438 15.3125 52.2656 14.6094C52.2031 13.8906 52.1172 13.2031 52.0078 12.5469C51.9297 12.125 51.8906 11.8281 51.8906 11.6562C51.8906 11.3438 52.1797 11.0938 52.7578 10.9062C53.3359 10.7031 53.9922 10.5547 54.7266 10.4609C55.4766 10.3672 56.0781 10.3203 56.5312 10.3203C57.0312 10.3203 57.375 10.5078 57.5625 10.8828C57.7656 11.2422 57.9453 11.7656 58.1016 12.4531L58.2188 12.9922C58.7031 12.0703 59.4375 11.3203 60.4219 10.7422C61.4219 10.1641 62.5469 9.875 63.7969 9.875C65.3125 9.875 66.6562 10.3125 67.8281 11.1875C69 12.0625 69.9141 13.3516 70.5703 15.0547C71.2422 16.7422 71.5781 18.7656 71.5781 21.125C71.5781 23.3906 71.2344 25.3672 70.5469 27.0547C69.8594 28.7422 68.8594 30.0469 67.5469 30.9688C66.2344 31.8906 64.6562 32.3516 62.8125 32.3516C61.2344 32.3516 59.8047 31.9141 58.5234 31.0391V39.2422C58.5234 39.6953 58.3203 40.0312 57.9141 40.25C57.5234 40.4844 56.8984 40.6016 56.0391 40.6016H54.8906ZM61.4531 27.4531C64.0312 27.4531 65.3203 25.3438 65.3203 21.125C65.3203 16.9844 64.2031 14.9141 61.9688 14.9141C60.6562 14.9141 59.5078 15.7344 58.5234 17.375V26.6562C59.4922 27.1875 60.4688 27.4531 61.4531 27.4531ZM85.2422 32.3516C81.9453 32.3516 79.4297 31.3828 77.6953 29.4453C75.9766 27.5078 75.1172 24.7188 75.1172 21.0781C75.1172 17.4531 75.9766 14.6797 77.6953 12.7578C79.4297 10.8359 81.9453 9.875 85.2422 9.875C88.5391 9.875 91.0391 10.8359 92.7422 12.7578C94.4609 14.6641 95.3203 17.4375 95.3203 21.0781C95.3203 24.7188 94.4609 27.5078 92.7422 29.4453C91.0391 31.3828 88.5391 32.3516 85.2422 32.3516ZM85.2422 27.4531C86.5547 27.4531 87.5156 26.9219 88.125 25.8594C88.75 24.7969 89.0625 23.2031 89.0625 21.0781C89.0625 18.9688 88.75 17.3828 88.125 16.3203C87.5156 15.2578 86.5547 14.7266 85.2422 14.7266C82.6484 14.7266 81.3516 16.8438 81.3516 21.0781C81.3516 23.1875 81.6641 24.7812 82.2891 25.8594C82.9297 26.9219 83.9141 27.4531 85.2422 27.4531ZM102.047 6.61719C101.172 6.61719 100.531 6.50781 100.125 6.28906C99.7344 6.07031 99.5391 5.73438 99.5391 5.28125V1.92969C99.5391 1.47656 99.7422 1.14062 100.148 0.921875C100.555 0.6875 101.188 0.570312 102.047 0.570312H103.195C104.055 0.570312 104.688 0.6875 105.094 0.921875C105.5 1.14062 105.703 1.47656 105.703 1.92969V5.28125C105.703 5.73438 105.5 6.07031 105.094 6.28906C104.703 6.50781 104.07 6.61719 103.195 6.61719H102.047ZM102.047 32.0703C100.375 32.0703 99.5391 31.6328 99.5391 30.7578V11.4453C99.5391 11.0078 99.7422 10.6797 100.148 10.4609C100.555 10.2422 101.188 10.1328 102.047 10.1328H103.195C104.055 10.1328 104.688 10.2422 105.094 10.4609C105.5 10.6797 105.703 11.0078 105.703 11.4453V30.7578C105.703 31.6328 104.867 32.0703 103.195 32.0703H102.047ZM113.227 32.0703C111.57 32.0703 110.742 31.6328 110.742 30.7578V17.5391C110.742 15.5391 110.609 13.875 110.344 12.5469C110.266 12.125 110.227 11.8281 110.227 11.6562C110.227 11.3438 110.516 11.0938 111.094 10.9062C111.688 10.7031 112.352 10.5547 113.086 10.4609C113.836 10.3672 114.438 10.3203 114.891 10.3203C115.375 10.3203 115.711 10.5 115.898 10.8594C116.102 11.2188 116.281 11.7422 116.438 12.4297L116.578 13.0391C117.234 12.1641 118.109 11.4219 119.203 10.8125C120.312 10.1875 121.5 9.875 122.766 9.875C124.859 9.875 126.406 10.4219 127.406 11.5156C128.406 12.6094 128.906 14.3047 128.906 16.6016V30.7578C128.906 31.6328 128.062 32.0703 126.375 32.0703H125.227C123.57 32.0703 122.742 31.6328 122.742 30.7578V17.5391C122.742 16.6953 122.539 16.0547 122.133 15.6172C121.742 15.1797 121.102 14.9609 120.211 14.9609C119.461 14.9609 118.797 15.2109 118.219 15.7109C117.641 16.2109 117.203 16.7656 116.906 17.375V30.7578C116.906 31.6328 116.062 32.0703 114.375 32.0703H113.227ZM140.648 32.3516C138.664 32.3516 137.148 31.7969 136.102 30.6875C135.07 29.5625 134.555 27.8594 134.555 25.5781V15.0781H133.898C133.461 15.0781 133.141 14.9141 132.938 14.5859C132.75 14.2578 132.656 13.7266 132.656 12.9922V12.2891C132.656 11.5547 132.75 11.0234 132.938 10.6953C133.141 10.3672 133.461 10.2031 133.898 10.2031H134.555L135.094 6.24219C135.219 5.36719 135.969 4.92969 137.344 4.92969H138.656C139.375 4.92969 139.898 5.03906 140.227 5.25781C140.57 5.47656 140.742 5.80469 140.742 6.24219V10.2031H142.781C143.219 10.2031 143.531 10.3672 143.719 10.6953C143.922 11.0234 144.023 11.5547 144.023 12.2891V12.9922C144.023 13.7266 143.922 14.2578 143.719 14.5859C143.531 14.9141 143.219 15.0781 142.781 15.0781H140.742V25.6484C140.742 26.2891 140.852 26.75 141.07 27.0312C141.305 27.3125 141.688 27.4531 142.219 27.4531C142.375 27.4531 142.586 27.4297 142.852 27.3828C143.117 27.3203 143.281 27.2891 143.344 27.2891C143.594 27.2891 143.812 27.5 144 27.9219C144.203 28.3281 144.359 28.7812 144.469 29.2812C144.594 29.7812 144.656 30.1172 144.656 30.2891C144.656 31.6641 143.32 32.3516 140.648 32.3516ZM154.359 32.3516C152.375 32.3516 150.859 31.7969 149.812 30.6875C148.781 29.5625 148.266 27.8594 148.266 25.5781V1.92969C148.266 1.02344 149.102 0.570312 150.773 0.570312H151.945C152.805 0.570312 153.43 0.6875 153.82 0.921875C154.227 1.14062 154.43 1.47656 154.43 1.92969V25.6484C154.43 26.2891 154.547 26.75 154.781 27.0312C155.016 27.3125 155.406 27.4531 155.953 27.4531C156.094 27.4531 156.305 27.4219 156.586 27.3594C156.664 27.3438 156.742 27.3281 156.82 27.3125C156.898 27.2969 156.984 27.2891 157.078 27.2891C157.312 27.2891 157.523 27.5 157.711 27.9219C157.914 28.3281 158.07 28.7891 158.18 29.3047C158.289 29.8047 158.344 30.1328 158.344 30.2891C158.344 31.6641 157.016 32.3516 154.359 32.3516ZM165.234 40.6016C163.562 40.6016 162.727 40.3047 162.727 39.7109C162.727 39.4766 162.781 39.2266 162.891 38.9609L165.539 32L158.648 11.7969C158.633 11.7031 158.602 11.5781 158.555 11.4219C158.508 11.25 158.484 11.125 158.484 11.0469C158.484 10.7344 158.688 10.5078 159.094 10.3672C159.5 10.2109 160.141 10.1328 161.016 10.1328H162.375C163.031 10.1328 163.555 10.2031 163.945 10.3438C164.352 10.4688 164.602 10.6875 164.695 11L167.133 18.6875C167.289 19.1719 167.484 19.9531 167.719 21.0312C167.953 22.0938 168.094 22.7266 168.141 22.9297L168.305 23.7266H168.492C168.508 23.6172 168.547 23.4531 168.609 23.2344C169.125 20.7344 169.477 19.2188 169.664 18.6875L172.102 11C172.211 10.6719 172.461 10.4453 172.852 10.3203C173.258 10.1953 173.789 10.1328 174.445 10.1328H175.453C176.312 10.1328 176.938 10.2109 177.328 10.3672C177.734 10.5078 177.938 10.7344 177.938 11.0469C177.938 11.2031 177.898 11.4531 177.82 11.7969L168.258 39.7109C168.055 40.3047 167.281 40.6016 165.938 40.6016H165.234ZM181.547 32.0703C179.875 32.0703 179.039 31.6328 179.039 30.7578V26.9141C179.039 26.0234 179.875 25.5781 181.547 25.5781H182.883C183.742 25.5781 184.367 25.6953 184.758 25.9297C185.164 26.1484 185.367 26.4766 185.367 26.9141V30.7578C185.367 31.6328 184.539 32.0703 182.883 32.0703H181.547ZM198.656 32.3516C195.109 32.3516 192.477 31.4375 190.758 29.6094C189.039 27.7656 188.18 24.9766 188.18 21.2422C188.18 17.4766 189.047 14.6406 190.781 12.7344C192.516 10.8281 195.219 9.875 198.891 9.875C199.938 9.875 200.992 9.99219 202.055 10.2266C203.133 10.4453 204.023 10.7734 204.727 11.2109C205.445 11.6328 205.805 12.1484 205.805 12.7578C205.805 13.0078 205.664 13.3984 205.383 13.9297C205.117 14.4609 204.805 14.9375 204.445 15.3594C204.102 15.7656 203.812 15.9688 203.578 15.9688C203.469 15.9688 203.227 15.8594 202.852 15.6406C202.258 15.3594 201.695 15.1406 201.164 14.9844C200.633 14.8125 199.984 14.7266 199.219 14.7266C197.578 14.7266 196.383 15.25 195.633 16.2969C194.883 17.3281 194.508 18.9219 194.508 21.0781C194.508 23.25 194.859 24.8594 195.562 25.9062C196.281 26.9375 197.422 27.4531 198.984 27.4531C199.844 27.4531 200.594 27.3672 201.234 27.1953C201.875 27.0078 202.484 26.7734 203.062 26.4922C203.172 26.4453 203.305 26.3906 203.461 26.3281C203.617 26.2656 203.734 26.2344 203.812 26.2344C204.094 26.2344 204.398 26.4375 204.727 26.8438C205.07 27.2344 205.359 27.6875 205.594 28.2031C205.844 28.7188 205.969 29.1172 205.969 29.3984C205.969 30.1172 205.5 30.6953 204.562 31.1328C203.625 31.5703 202.578 31.8828 201.422 32.0703C200.266 32.2578 199.344 32.3516 198.656 32.3516ZM218.508 32.3516C215.211 32.3516 212.695 31.3828 210.961 29.4453C209.242 27.5078 208.383 24.7188 208.383 21.0781C208.383 17.4531 209.242 14.6797 210.961 12.7578C212.695 10.8359 215.211 9.875 218.508 9.875C221.805 9.875 224.305 10.8359 226.008 12.7578C227.727 14.6641 228.586 17.4375 228.586 21.0781C228.586 24.7188 227.727 27.5078 226.008 29.4453C224.305 31.3828 221.805 32.3516 218.508 32.3516ZM218.508 27.4531C219.82 27.4531 220.781 26.9219 221.391 25.8594C222.016 24.7969 222.328 23.2031 222.328 21.0781C222.328 18.9688 222.016 17.3828 221.391 16.3203C220.781 15.2578 219.82 14.7266 218.508 14.7266C215.914 14.7266 214.617 16.8438 214.617 21.0781C214.617 23.1875 214.93 24.7812 215.555 25.8594C216.195 26.9219 217.18 27.4531 218.508 27.4531ZM256.852 9.875C258.93 9.875 260.461 10.4219 261.445 11.5156C262.445 12.6094 262.945 14.3047 262.945 16.6016V30.7578C262.945 31.6328 262.102 32.0703 260.414 32.0703H259.266C257.609 32.0703 256.781 31.6328 256.781 30.7578V17.5391C256.781 16.6953 256.586 16.0547 256.195 15.6172C255.82 15.1797 255.188 14.9609 254.297 14.9609C253.516 14.9609 252.852 15.2031 252.305 15.6875C251.773 16.1562 251.344 16.7031 251.016 17.3281V30.7578C251.016 31.6328 250.18 32.0703 248.508 32.0703H247.336C245.68 32.0703 244.852 31.6328 244.852 30.7578V17.5391C244.852 16.6953 244.656 16.0547 244.266 15.6172C243.891 15.1797 243.266 14.9609 242.391 14.9609C241.641 14.9609 240.977 15.2109 240.398 15.7109C239.836 16.2109 239.406 16.7656 239.109 17.375V30.7578C239.109 31.6328 238.266 32.0703 236.578 32.0703H235.43C233.773 32.0703 232.945 31.6328 232.945 30.7578V17.5391C232.945 15.5391 232.812 13.875 232.547 12.5469C232.469 12.125 232.43 11.8281 232.43 11.6562C232.43 11.3438 232.719 11.0938 233.297 10.9062C233.891 10.7031 234.555 10.5547 235.289 10.4609C236.039 10.3672 236.641 10.3203 237.094 10.3203C237.578 10.3203 237.914 10.5 238.102 10.8594C238.305 11.2188 238.484 11.7422 238.641 12.4297L238.781 13.0391C239.438 12.1484 240.312 11.3984 241.406 10.7891C242.5 10.1797 243.68 9.875 244.945 9.875C246.383 9.875 247.547 10.1328 248.438 10.6484C249.344 11.1641 250.008 11.9609 250.43 13.0391C251.133 12.1484 252.055 11.3984 253.195 10.7891C254.336 10.1797 255.555 9.875 256.852 9.875Z" fill="black" fill-opacity="0.9"/>
</svg>
