<svg width="352" height="170" viewBox="0 0 352 170" fill="none" xmlns="http://www.w3.org/2000/svg">
<rect width="352" height="170" fill="#E5E5E5"/>
<path d="M0 5C0 2.23858 2.23858 0 5 0H347C349.761 0 352 2.23858 352 5V165C352 167.761 349.761 170 347 170H5.00001C2.23858 170 0 167.761 0 165V5Z" fill="#2E2B2B"/>
<path d="M40.2822 99.0732C38.5081 99.0732 37.6211 98.7559 37.6211 98.1211C37.6211 97.9421 37.6781 97.6816 37.792 97.3398L47.3623 69.4346C47.5902 68.8161 48.4121 68.5068 49.8281 68.5068H52.0742C53.4902 68.5068 54.3122 68.8161 54.54 69.4346L64.1104 97.3398C64.1917 97.6654 64.2324 97.9258 64.2324 98.1211C64.2324 98.4466 64.0534 98.6908 63.6953 98.8535C63.3535 99 62.8083 99.0732 62.0596 99.0732H60.1553C59.4717 99.0732 58.9183 99.0081 58.4951 98.8779C58.0882 98.7314 57.8359 98.4954 57.7383 98.1699L55.9805 92.8721H45.751L43.9932 98.1699C43.8141 98.7721 43.1468 99.0732 41.9912 99.0732H40.2822ZM54.125 87.1348L51.6592 79.4199C51.5127 79.0293 51.3825 78.5817 51.2686 78.0771C51.1709 77.5726 51.0814 77.0924 51 76.6367H50.8291L50.7314 77.1738C50.5687 78.1341 50.3815 78.8828 50.1699 79.4199L47.6064 87.1348H54.125ZM69.8965 107.96C69.0013 107.96 68.3421 107.838 67.9189 107.594C67.4958 107.366 67.2842 107.016 67.2842 106.544V83.9365C67.2842 82.6344 67.2435 81.6172 67.1621 80.8848C67.097 80.1361 67.0075 79.4199 66.8936 78.7363C66.8122 78.2969 66.7715 77.9876 66.7715 77.8086C66.7715 77.4831 67.0726 77.2227 67.6748 77.0273C68.277 76.8158 68.9606 76.6611 69.7256 76.5635C70.5068 76.4658 71.1335 76.417 71.6055 76.417C72.1263 76.417 72.4844 76.6123 72.6797 77.0029C72.8913 77.3773 73.0785 77.9225 73.2412 78.6387L73.3633 79.2002C73.8678 78.2399 74.6328 77.4587 75.6582 76.8564C76.6999 76.2542 77.8717 75.9531 79.1738 75.9531C80.7526 75.9531 82.1523 76.4089 83.373 77.3203C84.5938 78.2318 85.5459 79.5745 86.2295 81.3486C86.9294 83.1064 87.2793 85.2142 87.2793 87.6719C87.2793 90.0319 86.9212 92.0908 86.2051 93.8486C85.4889 95.6064 84.4473 96.9655 83.0801 97.9258C81.7129 98.8861 80.069 99.3662 78.1484 99.3662C76.5046 99.3662 75.0153 98.9105 73.6807 97.999V106.544C73.6807 107.016 73.4691 107.366 73.0459 107.594C72.639 107.838 71.988 107.96 71.0928 107.96H69.8965ZM76.7324 94.2637C79.418 94.2637 80.7607 92.0664 80.7607 87.6719C80.7607 83.3587 79.597 81.2021 77.2695 81.2021C75.9023 81.2021 74.7061 82.0566 73.6807 83.7656V93.4336C74.6898 93.987 75.707 94.2637 76.7324 94.2637ZM94.7988 107.96C93.9036 107.96 93.2445 107.838 92.8213 107.594C92.3981 107.366 92.1865 107.016 92.1865 106.544V83.9365C92.1865 82.6344 92.1458 81.6172 92.0645 80.8848C91.9993 80.1361 91.9098 79.4199 91.7959 78.7363C91.7145 78.2969 91.6738 77.9876 91.6738 77.8086C91.6738 77.4831 91.9749 77.2227 92.5771 77.0273C93.1794 76.8158 93.863 76.6611 94.6279 76.5635C95.4092 76.4658 96.0358 76.417 96.5078 76.417C97.0286 76.417 97.3867 76.6123 97.582 77.0029C97.7936 77.3773 97.9808 77.9225 98.1436 78.6387L98.2656 79.2002C98.7702 78.2399 99.5352 77.4587 100.561 76.8564C101.602 76.2542 102.774 75.9531 104.076 75.9531C105.655 75.9531 107.055 76.4089 108.275 77.3203C109.496 78.2318 110.448 79.5745 111.132 81.3486C111.832 83.1064 112.182 85.2142 112.182 87.6719C112.182 90.0319 111.824 92.0908 111.107 93.8486C110.391 95.6064 109.35 96.9655 107.982 97.9258C106.615 98.8861 104.971 99.3662 103.051 99.3662C101.407 99.3662 99.9176 98.9105 98.583 97.999V106.544C98.583 107.016 98.3714 107.366 97.9482 107.594C97.5413 107.838 96.8903 107.96 95.9951 107.96H94.7988ZM101.635 94.2637C104.32 94.2637 105.663 92.0664 105.663 87.6719C105.663 83.3587 104.499 81.2021 102.172 81.2021C100.805 81.2021 99.6084 82.0566 98.583 83.7656V93.4336C99.5921 93.987 100.609 94.2637 101.635 94.2637ZM126.415 99.3662C122.981 99.3662 120.36 98.3571 118.554 96.3389C116.763 94.3206 115.868 91.4154 115.868 87.623C115.868 83.847 116.763 80.958 118.554 78.9561C120.36 76.9541 122.981 75.9531 126.415 75.9531C129.849 75.9531 132.453 76.9541 134.228 78.9561C136.018 80.9417 136.913 83.8307 136.913 87.623C136.913 91.4154 136.018 94.3206 134.228 96.3389C132.453 98.3571 129.849 99.3662 126.415 99.3662ZM126.415 94.2637C127.782 94.2637 128.783 93.7103 129.418 92.6035C130.069 91.4967 130.395 89.8366 130.395 87.623C130.395 85.4258 130.069 83.7738 129.418 82.667C128.783 81.5602 127.782 81.0068 126.415 81.0068C123.713 81.0068 122.362 83.2122 122.362 87.623C122.362 89.8203 122.688 91.4805 123.339 92.6035C124.006 93.7103 125.032 94.2637 126.415 94.2637ZM143.92 72.5596C143.008 72.5596 142.341 72.4456 141.918 72.2178C141.511 71.9899 141.308 71.64 141.308 71.168V67.6768C141.308 67.2048 141.519 66.8548 141.942 66.627C142.366 66.3828 143.025 66.2607 143.92 66.2607H145.116C146.011 66.2607 146.671 66.3828 147.094 66.627C147.517 66.8548 147.729 67.2048 147.729 67.6768V71.168C147.729 71.64 147.517 71.9899 147.094 72.2178C146.687 72.4456 146.028 72.5596 145.116 72.5596H143.92ZM143.92 99.0732C142.178 99.0732 141.308 98.6175 141.308 97.7061V77.5889C141.308 77.1331 141.519 76.7913 141.942 76.5635C142.366 76.3356 143.025 76.2217 143.92 76.2217H145.116C146.011 76.2217 146.671 76.3356 147.094 76.5635C147.517 76.7913 147.729 77.1331 147.729 77.5889V97.7061C147.729 98.6175 146.858 99.0732 145.116 99.0732H143.92ZM155.565 99.0732C153.84 99.0732 152.978 98.6175 152.978 97.7061V83.9365C152.978 81.8532 152.839 80.1198 152.562 78.7363C152.481 78.2969 152.44 77.9876 152.44 77.8086C152.44 77.4831 152.742 77.2227 153.344 77.0273C153.962 76.8158 154.654 76.6611 155.419 76.5635C156.2 76.4658 156.827 76.417 157.299 76.417C157.803 76.417 158.153 76.6042 158.349 76.9785C158.56 77.3529 158.747 77.8981 158.91 78.6143L159.057 79.249C159.74 78.3376 160.652 77.5645 161.791 76.9297C162.947 76.2786 164.184 75.9531 165.502 75.9531C167.683 75.9531 169.294 76.5228 170.336 77.6621C171.378 78.8014 171.898 80.5674 171.898 82.96V97.7061C171.898 98.6175 171.02 99.0732 169.262 99.0732H168.065C166.34 99.0732 165.478 98.6175 165.478 97.7061V83.9365C165.478 83.0576 165.266 82.3903 164.843 81.9346C164.436 81.4788 163.769 81.251 162.841 81.251C162.06 81.251 161.368 81.5114 160.766 82.0322C160.163 82.5531 159.708 83.1309 159.398 83.7656V97.7061C159.398 98.6175 158.52 99.0732 156.762 99.0732H155.565ZM184.13 99.3662C182.063 99.3662 180.484 98.7884 179.394 97.6328C178.319 96.4609 177.782 94.6868 177.782 92.3105V81.373H177.099C176.643 81.373 176.309 81.2021 176.098 80.8604C175.902 80.5186 175.805 79.9652 175.805 79.2002V78.4678C175.805 77.7028 175.902 77.1494 176.098 76.8076C176.309 76.4658 176.643 76.2949 177.099 76.2949H177.782L178.344 72.1689C178.474 71.2575 179.255 70.8018 180.688 70.8018H182.055C182.803 70.8018 183.349 70.9157 183.69 71.1436C184.049 71.3714 184.228 71.7132 184.228 72.1689V76.2949H186.352C186.807 76.2949 187.133 76.4658 187.328 76.8076C187.54 77.1494 187.646 77.7028 187.646 78.4678V79.2002C187.646 79.9652 187.54 80.5186 187.328 80.8604C187.133 81.2021 186.807 81.373 186.352 81.373H184.228V92.3838C184.228 93.0511 184.341 93.5312 184.569 93.8242C184.813 94.1172 185.212 94.2637 185.766 94.2637C185.928 94.2637 186.148 94.2393 186.425 94.1904C186.701 94.1253 186.872 94.0928 186.938 94.0928C187.198 94.0928 187.426 94.3125 187.621 94.752C187.833 95.1751 187.995 95.6471 188.109 96.168C188.24 96.6888 188.305 97.0387 188.305 97.2178C188.305 98.6501 186.913 99.3662 184.13 99.3662ZM198.412 99.3662C196.345 99.3662 194.766 98.7884 193.676 97.6328C192.602 96.4609 192.064 94.6868 192.064 92.3105V67.6768C192.064 66.7327 192.935 66.2607 194.677 66.2607H195.897C196.793 66.2607 197.444 66.3828 197.851 66.627C198.274 66.8548 198.485 67.2048 198.485 67.6768V92.3838C198.485 93.0511 198.607 93.5312 198.852 93.8242C199.096 94.1172 199.503 94.2637 200.072 94.2637C200.219 94.2637 200.438 94.2311 200.731 94.166C200.813 94.1497 200.894 94.1335 200.976 94.1172C201.057 94.1009 201.146 94.0928 201.244 94.0928C201.488 94.0928 201.708 94.3125 201.903 94.752C202.115 95.1751 202.278 95.6553 202.392 96.1924C202.506 96.7132 202.562 97.055 202.562 97.2178C202.562 98.6501 201.179 99.3662 198.412 99.3662ZM209.74 107.96C207.999 107.96 207.128 107.651 207.128 107.032C207.128 106.788 207.185 106.528 207.299 106.251L210.058 99L202.88 77.9551C202.864 77.8574 202.831 77.7272 202.782 77.5645C202.733 77.3854 202.709 77.2552 202.709 77.1738C202.709 76.8483 202.921 76.6123 203.344 76.4658C203.767 76.3031 204.434 76.2217 205.346 76.2217H206.762C207.445 76.2217 207.991 76.2949 208.397 76.4414C208.821 76.5716 209.081 76.7995 209.179 77.125L211.718 85.1328C211.881 85.6374 212.084 86.4512 212.328 87.5742C212.572 88.681 212.719 89.3402 212.768 89.5518L212.938 90.3818H213.134C213.15 90.2679 213.191 90.097 213.256 89.8691C213.793 87.265 214.159 85.6862 214.354 85.1328L216.894 77.125C217.007 76.7832 217.268 76.5472 217.675 76.417C218.098 76.2868 218.651 76.2217 219.335 76.2217H220.385C221.28 76.2217 221.931 76.3031 222.338 76.4658C222.761 76.6123 222.973 76.8483 222.973 77.1738C222.973 77.3366 222.932 77.597 222.851 77.9551L212.89 107.032C212.678 107.651 211.872 107.96 210.473 107.96H209.74ZM226.732 99.0732C224.991 99.0732 224.12 98.6175 224.12 97.7061V93.7021C224.12 92.7744 224.991 92.3105 226.732 92.3105H228.124C229.019 92.3105 229.67 92.4326 230.077 92.6768C230.5 92.9046 230.712 93.2464 230.712 93.7021V97.7061C230.712 98.6175 229.849 99.0732 228.124 99.0732H226.732ZM244.555 99.3662C240.86 99.3662 238.118 98.4141 236.327 96.5098C234.537 94.5892 233.642 91.6839 233.642 87.7939C233.642 83.8714 234.545 80.9173 236.352 78.9316C238.158 76.946 240.974 75.9531 244.799 75.9531C245.889 75.9531 246.988 76.0752 248.095 76.3193C249.218 76.5472 250.146 76.889 250.878 77.3447C251.627 77.7842 252.001 78.3213 252.001 78.9561C252.001 79.2165 251.854 79.6234 251.562 80.1768C251.285 80.7301 250.959 81.2266 250.585 81.666C250.227 82.0892 249.926 82.3008 249.682 82.3008C249.568 82.3008 249.315 82.1868 248.925 81.959C248.306 81.666 247.72 81.4382 247.167 81.2754C246.614 81.0964 245.938 81.0068 245.141 81.0068C243.432 81.0068 242.187 81.5521 241.405 82.6426C240.624 83.7168 240.233 85.377 240.233 87.623C240.233 89.8854 240.6 91.5618 241.332 92.6523C242.081 93.7266 243.269 94.2637 244.896 94.2637C245.792 94.2637 246.573 94.1742 247.24 93.9951C247.908 93.7998 248.542 93.5557 249.145 93.2627C249.258 93.2139 249.397 93.1569 249.56 93.0918C249.722 93.0267 249.844 92.9941 249.926 92.9941C250.219 92.9941 250.536 93.2057 250.878 93.6289C251.236 94.0358 251.537 94.5078 251.781 95.0449C252.042 95.582 252.172 95.9971 252.172 96.29C252.172 97.0387 251.684 97.641 250.707 98.0967C249.73 98.5524 248.64 98.8779 247.436 99.0732C246.231 99.2686 245.271 99.3662 244.555 99.3662ZM265.233 99.3662C261.799 99.3662 259.179 98.3571 257.372 96.3389C255.582 94.3206 254.687 91.4154 254.687 87.623C254.687 83.847 255.582 80.958 257.372 78.9561C259.179 76.9541 261.799 75.9531 265.233 75.9531C268.668 75.9531 271.272 76.9541 273.046 78.9561C274.836 80.9417 275.731 83.8307 275.731 87.623C275.731 91.4154 274.836 94.3206 273.046 96.3389C271.272 98.3571 268.668 99.3662 265.233 99.3662ZM265.233 94.2637C266.601 94.2637 267.602 93.7103 268.236 92.6035C268.887 91.4967 269.213 89.8366 269.213 87.623C269.213 85.4258 268.887 83.7738 268.236 82.667C267.602 81.5602 266.601 81.0068 265.233 81.0068C262.532 81.0068 261.181 83.2122 261.181 87.623C261.181 89.8203 261.506 91.4805 262.157 92.6035C262.825 93.7103 263.85 94.2637 265.233 94.2637ZM305.175 75.9531C307.34 75.9531 308.935 76.5228 309.96 77.6621C311.002 78.8014 311.522 80.5674 311.522 82.96V97.7061C311.522 98.6175 310.644 99.0732 308.886 99.0732H307.689C305.964 99.0732 305.102 98.6175 305.102 97.7061V83.9365C305.102 83.0576 304.898 82.3903 304.491 81.9346C304.101 81.4788 303.441 81.251 302.514 81.251C301.7 81.251 301.008 81.5033 300.438 82.0078C299.885 82.4961 299.438 83.0658 299.096 83.7168V97.7061C299.096 98.6175 298.225 99.0732 296.483 99.0732H295.263C293.537 99.0732 292.675 98.6175 292.675 97.7061V83.9365C292.675 83.0576 292.471 82.3903 292.064 81.9346C291.674 81.4788 291.023 81.251 290.111 81.251C289.33 81.251 288.638 81.5114 288.036 82.0322C287.45 82.5531 287.003 83.1309 286.693 83.7656V97.7061C286.693 98.6175 285.814 99.0732 284.057 99.0732H282.86C281.135 99.0732 280.272 98.6175 280.272 97.7061V83.9365C280.272 81.8532 280.134 80.1198 279.857 78.7363C279.776 78.2969 279.735 77.9876 279.735 77.8086C279.735 77.4831 280.036 77.2227 280.639 77.0273C281.257 76.8158 281.949 76.6611 282.714 76.5635C283.495 76.4658 284.122 76.417 284.594 76.417C285.098 76.417 285.448 76.6042 285.644 76.9785C285.855 77.3529 286.042 77.8981 286.205 78.6143L286.352 79.249C287.035 78.3213 287.947 77.54 289.086 76.9053C290.225 76.2705 291.454 75.9531 292.772 75.9531C294.27 75.9531 295.482 76.2217 296.41 76.7588C297.354 77.2959 298.046 78.126 298.485 79.249C299.218 78.3213 300.178 77.54 301.366 76.9053C302.554 76.2705 303.824 75.9531 305.175 75.9531Z" fill="white" fill-opacity="0.9"/>
</svg>
