<svg width="268" height="41" viewBox="0 0 268 41" fill="none" xmlns="http://www.w3.org/2000/svg">
<path d="M0.8 25.44H2.8V7.44H0.8V0.879998H19.16C22.6 0.879998 25.2267 1.58666 27.04 3C28.8533 4.41333 29.76 6.70666 29.76 9.88C29.76 11.6667 29.4 13.2133 28.68 14.52C27.96 15.8267 26.9333 16.7333 25.6 17.24L25.64 17.64C28.2 18.04 29.48 19.6133 29.48 22.36V25.44H31.36V32H18.68V22.6C18.68 21.56 18.52 20.7733 18.2 20.24C17.9067 19.7067 17.4267 19.3467 16.76 19.16C16.12 18.9733 15.2 18.88 14 18.88V25.44H16.64V32H0.8V25.44ZM16.16 14C16.9333 14 17.5067 13.8 17.88 13.4C18.28 12.9733 18.48 12.32 18.48 11.44V10C18.48 9.12 18.28 8.48 17.88 8.08C17.5067 7.65333 16.9333 7.44 16.16 7.44H14V14H16.16ZM44.6322 32.56C40.8455 32.56 37.8855 31.5733 35.7522 29.6C33.6189 27.6 32.5522 24.6933 32.5522 20.88C32.5522 17.0667 33.6189 14.1733 35.7522 12.2C37.8855 10.2 40.8455 9.2 44.6322 9.2C48.3922 9.2 51.0989 10.1867 52.7522 12.16C54.4322 14.1067 55.2722 16.5333 55.2722 19.44V22.32H42.3122V22.56C42.3122 23.5467 42.6055 24.28 43.1922 24.76C43.7789 25.2133 44.7522 25.44 46.1122 25.44C47.7389 25.44 49.2855 25.32 50.7522 25.08C52.2189 24.84 53.4989 24.5333 54.5922 24.16V30.56C53.6589 31.0667 52.2855 31.5333 50.4722 31.96C48.6855 32.36 46.7389 32.56 44.6322 32.56ZM46.9522 17.92V17.44C46.9522 16.5333 46.7522 15.88 46.3522 15.48C45.9789 15.08 45.4055 14.88 44.6322 14.88C43.8589 14.88 43.2722 15.0933 42.8722 15.52C42.4989 15.92 42.3122 16.56 42.3122 17.44V17.92H46.9522ZM67.7822 34.32H70.5422V29.28C69.8755 30.1333 69.0089 30.8933 67.9422 31.56C66.9022 32.2267 65.7022 32.56 64.3422 32.56C61.6222 32.56 59.5689 31.5467 58.1822 29.52C56.8222 27.4933 56.1422 24.6133 56.1422 20.88C56.1422 17.1467 56.8222 14.2667 58.1822 12.24C59.5689 10.2133 61.6222 9.2 64.3422 9.2C65.7022 9.2 66.9022 9.53333 67.9422 10.2C69.0089 10.8667 69.8755 11.6267 70.5422 12.48V9.76H81.5022V16.32H79.7422V40.88H67.7822V34.32ZM68.2222 25.44C68.9955 25.44 69.5689 25.24 69.9422 24.84C70.3422 24.4133 70.5422 23.76 70.5422 22.88V18.88C70.5422 18 70.3422 17.36 69.9422 16.96C69.5689 16.5333 68.9955 16.32 68.2222 16.32C67.4489 16.32 66.8622 16.5333 66.4622 16.96C66.0889 17.36 65.9022 18 65.9022 18.88V22.88C65.9022 23.76 66.0889 24.4133 66.4622 24.84C66.8622 25.24 67.4489 25.44 68.2222 25.44ZM108.876 25.44V32H97.9159V28.88C95.9959 31.3333 93.5959 32.56 90.7159 32.56C88.5026 32.56 86.8359 31.8667 85.7159 30.48C84.6226 29.0933 84.0759 27.1867 84.0759 24.76V16.32H82.3159V9.76H93.2759V22.88C93.2759 23.76 93.4626 24.4133 93.8359 24.84C94.2359 25.24 94.8226 25.44 95.5959 25.44C96.3693 25.44 96.9426 25.24 97.3159 24.84C97.7159 24.4133 97.9159 23.76 97.9159 22.88V16.32H95.7559V9.76H107.116V25.44H108.876ZM121.898 32.56C118.111 32.56 115.151 31.5733 113.018 29.6C110.884 27.6 109.818 24.6933 109.818 20.88C109.818 17.0667 110.884 14.1733 113.018 12.2C115.151 10.2 118.111 9.2 121.898 9.2C125.658 9.2 128.364 10.1867 130.018 12.16C131.698 14.1067 132.538 16.5333 132.538 19.44V22.32H119.578V22.56C119.578 23.5467 119.871 24.28 120.458 24.76C121.044 25.2133 122.018 25.44 123.378 25.44C125.004 25.44 126.551 25.32 128.018 25.08C129.484 24.84 130.764 24.5333 131.858 24.16V30.56C130.924 31.0667 129.551 31.5333 127.738 31.96C125.951 32.36 124.004 32.56 121.898 32.56ZM124.218 17.92V17.44C124.218 16.5333 124.018 15.88 123.618 15.48C123.244 15.08 122.671 14.88 121.898 14.88C121.124 14.88 120.538 15.0933 120.138 15.52C119.764 15.92 119.578 16.56 119.578 17.44V17.92H124.218ZM143.448 32.56C140.088 32.56 136.848 32.0267 133.728 30.96V25.04H140.208V25.44C140.208 26.72 141.021 27.36 142.648 27.36C144.088 27.36 144.808 26.8667 144.808 25.88C144.808 25.3467 144.594 24.9467 144.168 24.68C143.768 24.4133 143.048 24.1867 142.008 24L140.008 23.64C135.821 22.8933 133.728 20.52 133.728 16.52C133.728 14.2 134.608 12.4 136.368 11.12C138.128 9.84 140.501 9.2 143.488 9.2C146.821 9.2 149.634 9.76 151.928 10.88V16.44H145.848V16.04C145.848 15.5067 145.661 15.1067 145.288 14.84C144.941 14.5467 144.421 14.4 143.728 14.4C142.394 14.4 141.728 14.8267 141.728 15.68C141.728 16.1333 141.914 16.48 142.288 16.72C142.661 16.96 143.341 17.1867 144.328 17.4L146.608 17.84C148.981 18.2933 150.674 19.1333 151.688 20.36C152.701 21.5867 153.208 23.16 153.208 25.08C153.208 27.5067 152.354 29.36 150.648 30.64C148.968 31.92 146.568 32.56 143.448 32.56ZM164.35 32.56C161.523 32.56 159.39 31.88 157.95 30.52C156.537 29.1333 155.83 26.8133 155.83 23.56V16.32H154.07V9.76C155.083 9.76 155.843 9.50666 156.35 9C156.857 8.46667 157.11 7.74667 157.11 6.84V5.04H165.59V9.76H170.99V16.32H165.59V22.88C165.59 23.76 165.777 24.4133 166.15 24.84C166.55 25.24 167.137 25.44 167.91 25.44C168.923 25.44 170.03 25.32 171.23 25.08V31.36C170.483 31.6533 169.47 31.92 168.19 32.16C166.937 32.4267 165.657 32.56 164.35 32.56ZM202.437 10.56H195.557V7.44H192.997V25.44H195.797V32H178.997V25.44H181.797V7.44H179.237V10.56H172.357V0.879998H202.437V10.56ZM226.423 25.44V32H215.863V29.28C215.276 30.1333 214.449 30.8933 213.383 31.56C212.343 32.2267 211.063 32.56 209.543 32.56C207.543 32.56 205.969 32.0267 204.823 30.96C203.676 29.8933 203.103 28.3867 203.103 26.44C203.103 21.4 207.383 18.8133 215.943 18.68C215.863 17.7733 215.516 17.16 214.903 16.84C214.289 16.4933 213.249 16.32 211.783 16.32C210.583 16.32 209.289 16.4533 207.903 16.72C206.543 16.96 205.289 17.2933 204.143 17.72V10.36C205.556 10.0133 207.089 9.73333 208.743 9.52C210.396 9.30666 212.009 9.2 213.583 9.2C217.556 9.2 220.396 9.92 222.103 11.36C223.809 12.8 224.663 15.0267 224.663 18.04V25.44H226.423ZM215.863 22.64C214.663 22.64 213.729 22.8 213.063 23.12C212.423 23.44 212.103 23.9733 212.103 24.72C212.103 25.1733 212.236 25.5467 212.503 25.84C212.796 26.1067 213.196 26.24 213.703 26.24C214.396 26.24 214.929 25.9467 215.303 25.36C215.676 24.7733 215.863 23.9467 215.863 22.88V22.64ZM227.712 32.04V25.44H229.472V7.44H227.712V0.879998H238.672V25.44H240.432V32.04H227.712ZM265.817 25.44H267.537V32H257.737L253.617 24.32H252.657V32H241.697V25.44H243.457V7.44H241.697V0.879998H252.657V17.12H253.617L258.577 9.76H267.017V16.32H265.377L261.977 20.12L265.817 25.44Z" fill="url(#paint0_linear_1_3)"/>
<defs>
<linearGradient id="paint0_linear_1_3" x1="137.5" y1="-10" x2="137.5" y2="43" gradientUnits="userSpaceOnUse">
<stop stop-color="#8F94FB"/>
<stop offset="1" stop-color="#4E54C8"/>
</linearGradient>
</defs>
</svg>
